<?xml version="1.0" encoding="utf-8"?>
<!-- Generator: Adobe Illustrator 17.0.0, SVG Export Plug-In . SVG Version: 6.00 Build 0)  -->
<!DOCTYPE svg PUBLIC "-//W3C//DTD SVG 1.1//EN" "http://www.w3.org/Graphics/SVG/1.1/DTD/svg11.dtd">
<svg version="1.1" id="Capa_1" xmlns="http://www.w3.org/2000/svg" xmlns:xlink="http://www.w3.org/1999/xlink" x="0px" y="0px"
	 width="2500px" height="2500px" viewBox="0 0 2500 2500" enable-background="new 0 0 2500 2500" xml:space="preserve">
<path fill="#FF005E" d="M1218.69,1129.335l-262.195,803.403c-58.649,181.299-127.649,238.178-262.196,238.178
	s-206.996-56.879-262.196-238.178L31.91,620.986c-10.349-28.439-13.8-56.879-13.8-85.318c0-127.976,127.647-206.183,244.946-206.183
	c79.349,0,158.698,35.549,189.747,159.97l224.247,828.288c10.349,39.105,13.8,81.763,37.949,81.763
	c17.249,0,24.149-53.323,34.498-81.763l238.047-750.08c58.649-181.301,127.647-238.178,262.195-238.178
	c134.549,0,203.547,56.878,262.196,238.178l238.046,750.08c10.351,28.439,17.251,81.763,34.5,81.763
	c24.149,0,27.6-42.658,37.949-81.763l224.247-828.288c31.049-124.42,110.398-159.97,189.747-159.97
	c110.397,0,244.946,71.097,244.946,206.183c0,28.439-3.451,56.879-13.8,85.318l-400.193,1311.752
	c-55.2,181.299-127.649,238.178-262.196,238.178s-203.547-56.879-262.196-238.178l-262.195-803.403
	c-10.351-28.439-6.9-60.433-31.051-60.433C1225.59,1068.902,1229.041,1100.896,1218.69,1129.335z"/>
</svg>
