<?xml version="1.0" encoding="utf-8"?>
<!-- Generator: Adobe Illustrator 17.0.0, SVG Export Plug-In . SVG Version: 6.00 Build 0)  -->
<!DOCTYPE svg PUBLIC "-//W3C//DTD SVG 1.1//EN" "http://www.w3.org/Graphics/SVG/1.1/DTD/svg11.dtd">
<svg version="1.1" id="Capa_1" xmlns="http://www.w3.org/2000/svg" xmlns:xlink="http://www.w3.org/1999/xlink" x="0px" y="0px"
	 width="2500px" height="1090.526px" viewBox="0 0 2500 1090.526" enable-background="new 0 0 2500 1090.526" xml:space="preserve">
<g>
	<path fill="#FFFFFF" d="M310.7,357.799l-67.002,203.472c-14.987,45.916-32.62,60.322-67.003,60.322s-52.897-14.405-67.003-60.322
		L7.425,229.053c-2.645-7.203-3.526-14.405-3.526-21.608c0-32.412,32.62-52.219,62.595-52.219c20.277,0,40.554,9.003,48.489,40.514
		l57.305,209.775c2.645,9.904,3.527,20.707,9.698,20.707c4.408,0,6.171-13.505,8.816-20.707l60.832-189.967
		c14.987-45.917,32.62-60.322,67.002-60.322c34.383,0,52.015,14.405,67.003,60.322l60.831,189.967
		c2.645,7.203,4.408,20.707,8.816,20.707c6.171,0,7.053-10.804,9.698-20.707l57.305-209.775
		c7.935-31.511,28.212-40.514,48.489-40.514c28.211,0,62.594,18.006,62.594,52.219c0,7.203-0.882,14.405-3.526,21.608
		L527.577,561.271c-14.106,45.916-32.62,60.322-67.003,60.322s-52.015-14.405-67.003-60.322l-67.002-203.472
		c-2.645-7.203-1.763-15.305-7.935-15.305C312.463,342.493,313.345,350.596,310.7,357.799z"/>
	<path fill="#FFFFFF" d="M821.386,155.226c152.519,0,187.784,99.936,187.784,233.183c0,133.247-35.265,233.183-187.784,233.183
		S633.602,521.657,633.602,388.41C633.602,255.162,668.866,155.226,821.386,155.226z M821.386,514.454
		c70.529,0,74.937-46.817,74.937-126.045c0-79.228-4.408-126.045-74.937-126.045c-70.529,0-74.937,46.817-74.937,126.045
		C746.448,467.638,750.856,514.454,821.386,514.454z"/>
	<path fill="#FFFFFF" d="M1285.48,361.4c0-43.215,0-102.636-72.292-102.636c-8.816,0-72.293,2.701-72.293,86.431v225.08
		c0,38.714-27.33,51.318-54.66,51.318c-27.33,0-55.542-12.605-55.542-51.318V206.545c0-38.714,28.212-51.318,55.542-51.318
		c27.33,0,42.318,10.804,49.371,26.109c3.526,8.103,7.053,8.103,10.579,8.103c4.408,0,9.698-5.402,19.396-11.704
		c23.803-15.305,45.844-22.508,85.516-22.508c99.622,0,144.585,75.627,144.585,166.559v248.488c0,38.714-27.33,51.318-54.66,51.318
		c-27.33,0-55.542-12.605-55.542-51.318V361.4z"/>
	<path fill="#FFFFFF" d="M1421.89,388.41c0-133.248,41.436-233.183,162.217-233.183c22.04,0,46.726,4.501,67.003,18.006
		c9.698,6.302,14.987,13.505,19.395,13.505c3.526,0,10.58-0.9,10.58-11.704V51.318c0-38.714,27.33-51.318,54.66-51.318
		c27.33,0,55.542,12.604,55.542,51.318v518.956c0,38.714-28.212,51.318-55.542,51.318c-27.33,0-42.318-10.804-49.37-26.109
		c-3.526-8.103-7.053-8.103-10.579-8.103c-4.408,0-9.698,7.203-19.395,13.505c-20.277,13.505-43.199,20.707-72.293,20.707
		C1463.326,621.592,1421.89,521.657,1421.89,388.41z M1681.085,388.41c0-57.621-0.882-126.045-71.411-126.045
		c-63.476,0-74.937,46.817-74.937,126.045c0,79.228,9.698,126.045,74.937,126.045
		C1680.203,514.454,1681.085,438.828,1681.085,388.41z"/>
	<path fill="#FFFFFF" d="M2022.33,514.454c24.685,0,56.423-8.103,77.582-22.508c13.224-9.903,21.158-15.305,37.909-15.305
		c30.856,0,53.778,30.611,53.778,58.521c0,11.704-6.171,24.309-17.632,34.212c-46.725,36.913-95.214,52.219-155.164,52.219
		c-150.756,0-191.31-90.032-191.31-233.183c0-136.849,36.146-233.183,186.902-233.183c133.123,0,181.612,80.129,181.612,207.974
		c0,33.312-3.526,67.524-52.897,67.524H1950.92c-6.172,0-8.816,2.701-8.816,9.003
		C1944.748,486.545,1961.499,514.454,2022.33,514.454z M2014.396,255.162c-45.844,0-70.529,33.312-71.411,79.228
		c0,5.402,1.763,8.103,6.172,8.103h132.242c4.408,0,6.171-2.701,6.171-7.203C2087.57,289.374,2064.648,255.162,2014.396,255.162z"/>
	<path fill="#FFFFFF" d="M2235.883,206.545c0-38.714,28.212-51.318,55.542-51.318c25.567,0,44.08,11.704,53.778,34.212
		c0.882,1.801,1.764,2.701,3.527,2.701c4.408,0,11.461-8.103,24.685-18.006c11.461-9.903,30.857-18.907,54.66-18.907
		c45.844,0,67.884,14.405,67.884,60.322c0,40.514-22.04,53.119-42.317,53.119c-25.567,0-27.33-0.9-41.436-0.9
		c-21.158,0-66.121,1.801-66.121,78.328v224.18c0,38.714-27.33,51.318-54.66,51.318c-27.33,0-55.542-12.605-55.542-51.318V206.545z"
		/>
</g>
<g>
	<path fill="#FF005C" d="M1522.936,787.293c4.869,3.081,7.525,6.602,9.737,6.602c1.772,0,3.542,0,5.312-3.961
		c3.544-7.481,11.068-12.763,24.79-12.763c13.724,0,27.891,6.161,27.891,25.086v204.651c0,56.774-50.024,83.62-100.933,83.62
		c-29.661,0-47.368-5.721-58.436-11.442c-9.294-4.842-12.395-11.883-12.395-20.246c0-14.083,7.969-29.046,23.464-29.046
		c5.755,0,9.739,2.2,14.608,3.959c10.625,3.521,20.808,4.842,32.76,4.842c24.347,0,45.598-9.242,45.598-31.688v-11.442
		c0-5.283-3.544-5.723-5.314-5.723c-2.213,0-4.871,3.521-9.739,6.602c-10.18,6.602-22.576,8.802-33.644,8.802
		c-60.649,0-81.457-48.851-81.457-113.987s20.808-113.989,81.457-113.989C1501.243,777.17,1512.752,780.691,1522.936,787.293z
		 M1535.331,891.158c0-28.167-0.443-61.614-35.861-61.614c-31.872,0-37.629,22.884-37.629,61.614
		c0,38.728,4.871,61.614,37.629,61.614C1534.888,952.773,1535.331,915.804,1535.331,891.158z"/>
	<path fill="#FF005C" d="M1612.224,802.256c0-18.925,14.165-25.086,27.889-25.086c12.838,0,22.135,5.721,27.005,16.725
		c0.443,0.881,0.884,1.321,1.77,1.321c2.213,0,5.755-3.961,12.395-8.804c5.755-4.84,15.494-9.242,27.446-9.242
		c23.021,0,34.087,7.042,34.087,29.488c0,19.805-11.066,25.967-21.249,25.967c-12.838,0-13.724-0.44-20.806-0.44
		c-10.625,0-33.201,0.879-33.201,38.288v109.587c0,18.925-13.724,25.086-27.448,25.086c-13.724,0-27.889-6.161-27.889-25.086
		V802.256z"/>
	<path fill="#FF005C" d="M1840.091,777.17c76.584,0,94.293,48.853,94.293,113.989s-17.709,113.987-94.293,113.987
		c-76.586,0-94.295-48.851-94.295-113.987S1763.505,777.17,1840.091,777.17z M1840.091,952.773
		c35.414,0,37.629-22.886,37.629-61.614c0-38.73-2.215-61.614-37.629-61.614c-35.416,0-37.629,22.884-37.629,61.614
		C1802.463,929.887,1804.676,952.773,1840.091,952.773z"/>
	<path fill="#FF005C" d="M2006.981,904.362c0,21.125,0,50.172,36.3,50.172c4.869,0,34.087-1.321,34.087-42.251V802.256
		c0-18.925,13.281-25.086,27.446-25.086c13.724,0,27.891,6.161,27.891,25.086v177.803c0,18.925-14.167,25.086-27.891,25.086
		c-13.722,0-21.249-5.281-24.79-12.761c-1.77-3.961-3.542-3.961-5.312-3.961c-2.213,0-4.869,2.64-9.739,5.721
		c-11.952,7.483-20.806,11.002-40.727,11.002c-50.024,0-72.601-36.969-72.601-81.42V802.256c0-18.925,13.724-25.086,27.446-25.086
		c13.724,0,27.891,6.161,27.891,25.086V904.362z"/>
	<path fill="#FF005C" d="M2339.747,891.158c0,65.136-20.808,113.987-81.457,113.987c-11.066,0-23.462-2.2-33.644-8.802
		c-4.869-3.081-7.527-6.602-9.74-6.602c-1.77,0-5.312,0.44-5.312,5.723v69.976c0,18.925-13.724,25.086-27.446,25.086
		c-13.724,0-27.891-6.161-27.891-25.086V802.256c0-18.925,14.167-25.086,27.891-25.086c13.722,0,21.249,5.283,24.79,12.763
		c1.77,3.961,3.542,3.961,5.312,3.961c2.213,0,4.869-3.521,9.739-6.602c10.182-6.602,21.692-10.123,36.3-10.123
		C2318.939,777.17,2339.747,826.023,2339.747,891.158z M2283.083,891.158c0-38.73-5.757-61.614-37.63-61.614
		c-35.414,0-35.857,33.448-35.857,61.614c0,24.646,0.443,61.614,35.857,61.614C2278.212,952.773,2283.083,929.887,2283.083,891.158z
		"/>
</g>
</svg>
