<?xml version="1.0" encoding="utf-8"?>
<!-- Generator: Adobe Illustrator 17.0.0, SVG Export Plug-In . SVG Version: 6.00 Build 0)  -->
<!DOCTYPE svg PUBLIC "-//W3C//DTD SVG 1.1//EN" "http://www.w3.org/Graphics/SVG/1.1/DTD/svg11.dtd">
<svg version="1.1" id="Capa_1" xmlns="http://www.w3.org/2000/svg" xmlns:xlink="http://www.w3.org/1999/xlink" x="0px" y="0px"
	 width="512px" height="512px" viewBox="0 0 512 512" enable-background="new 0 0 512 512" xml:space="preserve">
<rect display="none" fill="#222221" width="512" height="512"/>
<g display="none">
	<path display="inline" fill="#FFFFFF" d="M495.197,342.656h-14.854V90.146c0-24.57-19.99-44.561-44.561-44.561H77.317
		c-24.57,0-44.561,19.99-44.561,44.561v252.51H17.903c-8.204,0-14.854,6.649-14.854,14.854c0,40.952,33.316,74.268,74.268,74.268
		h358.466c40.952,0,74.268-33.316,74.268-74.268C510.051,349.306,503.401,342.656,495.197,342.656z M62.463,90.146
		c0-8.189,6.665-14.854,14.854-14.854h358.466c8.189,0,14.854,6.665,14.854,14.854v252.51H62.463V90.146z M435.783,402.071H77.317
		c-19.368,0-35.884-12.428-42.015-29.719h442.497C471.667,389.642,455.15,402.071,435.783,402.071z"/>
	<path display="inline" fill="#FFFFFF" d="M176.94,139.058c-5.798-5.802-15.206-5.802-21.004,0l-59.414,59.414
		c-5.802,5.802-5.802,15.206,0,21.004l59.414,59.414c5.798,5.802,15.202,5.802,21.004,0c5.802-5.798,5.802-15.202,0-21.004
		l-48.908-48.912l48.908-48.912C182.742,154.264,182.742,144.857,176.94,139.058z"/>
	<path display="inline" fill="#FFFFFF" d="M357.163,139.058c-5.798-5.802-15.206-5.802-21.004,0c-5.802,5.802-5.802,15.206,0,21.004
		l48.908,48.912l-48.908,48.912c-5.802,5.802-5.802,15.206,0,21.004c5.798,5.802,15.202,5.802,21.004,0l59.414-59.414
		c5.802-5.798,5.802-15.202,0-21.004L357.163,139.058z"/>
	<path display="inline" fill="#FFFFFF" d="M290.953,105.762c-7.779-2.592-16.192,1.613-18.787,9.396L212.751,293.4
		c-2.596,7.783,1.613,16.192,9.396,18.787c7.779,2.596,16.192-1.613,18.787-9.396l59.414-178.243
		C302.944,116.766,298.736,108.357,290.953,105.762z"/>
</g>
<g display="none">
	<path display="inline" fill="#FFFFFF" d="M504.021,138.473c-3.279-1.943-7.334-2.019-10.681-0.194l-116.857,63.807v-38.285
		c-0.034-29.783-24.169-53.918-53.952-53.952H53.952C24.169,109.882,0.034,134.017,0,163.801v213.026
		c0.034,29.783,24.169,53.918,53.952,53.952h268.58c29.783-0.034,53.918-24.169,53.952-53.952v-37.589l116.861,63.807
		c3.342,1.825,7.402,1.753,10.677-0.19c3.279-1.947,5.286-5.475,5.286-9.281V147.75
		C509.307,143.939,507.296,140.416,504.021,138.473z M354.894,376.831c-0.017,17.872-14.5,32.35-32.371,32.371H53.952
		c-17.872-0.021-32.35-14.5-32.371-32.371v-213.03c0.021-17.867,14.5-32.35,32.371-32.371h268.58
		c17.867,0.021,32.35,14.504,32.371,32.371L354.894,376.831z M487.726,375.389l-111.242-60.738v-87.98l111.242-60.734V375.389z"/>
</g>
<g display="none">
	<g display="inline">
		<g>
			<g>
				<path fill="#FFFFFF" d="M494.919,89.365c-10.249-10.737-24.402-17.081-40.507-17.081h-81.014v-0.976
					c0-12.201-4.88-23.914-13.177-31.722c-8.297-8.297-19.521-13.177-31.722-13.177h-146.41c-12.689,0-23.914,4.88-32.21,13.177
					s-13.177,19.521-13.177,31.722v0.976H56.177c-16.105,0-30.258,6.344-40.507,17.081C5.421,99.614-1.411,114.255-1.411,129.872
					v243.041c0,16.105,6.344,30.258,17.081,40.507c10.249,10.249,24.89,17.081,40.507,17.081h398.235
					c16.105,0,30.258-6.344,40.507-17.081C505.168,403.171,512,388.53,512,372.913V129.872
					C512,113.767,505.656,99.614,494.919,89.365z M486.622,372.913h-0.488c0,8.785-3.416,16.593-9.273,22.45
					c-5.856,5.856-13.665,9.273-22.45,9.273H56.177c-8.785,0-16.593-3.416-22.45-9.273c-5.856-5.856-9.273-13.665-9.273-22.45
					V129.872c0-8.785,3.416-16.593,9.273-22.45c5.856-5.856,13.665-9.273,22.45-9.273h94.19c7.321,0,13.177-5.856,13.177-13.177
					V70.82c0-5.368,1.952-10.249,5.368-13.665s8.297-5.368,13.665-5.368h145.922c5.368,0,10.249,1.952,13.665,5.368
					c3.416,3.416,5.368,8.297,5.368,13.665v14.153c0,7.321,5.856,13.177,13.177,13.177h94.19c8.785,0,16.593,3.416,22.45,9.273
					c5.856,5.856,9.273,13.665,9.273,22.45V372.913z"/>
				<path fill="#FFFFFF" d="M255.294,131.336c-33.186,0-63.444,13.665-84.918,35.138c-21.962,21.962-35.138,51.732-35.138,84.918
					s13.665,63.444,35.138,84.918c21.962,21.962,51.732,35.138,84.918,35.138s63.444-13.665,84.918-35.138
					c21.962-21.962,35.138-51.732,35.138-84.918s-13.665-63.444-35.138-84.918C318.739,145.001,288.481,131.336,255.294,131.336z
					 M321.667,318.253c-17.081,16.593-40.507,27.33-66.373,27.33s-49.291-10.737-66.373-27.33
					c-17.081-17.081-27.33-40.507-27.33-66.373s10.737-49.291,27.33-66.373c17.081-17.081,40.507-27.33,66.373-27.33
					s49.291,10.737,66.373,27.33c17.081,17.081,27.33,40.507,27.33,66.373C349.485,277.746,338.748,301.172,321.667,318.253z"/>
				<circle fill="#FFFFFF" cx="429.034" cy="154.762" r="23.914"/>
			</g>
		</g>
	</g>
</g>
<g display="none">
	<g display="inline">
		<path fill="#FFFFFF" d="M221.326,86.463v-1.092c0-11.914-4.639-23.111-13.068-31.54c-7.65-7.657-17.832-11.872-28.661-11.872
			c-10.432,0-20.267,3.916-27.82,11.051c-7.553-7.136-17.387-11.051-27.82-11.051c-10.829,0-21.011,4.215-28.661,11.872
			c-8.429,8.429-13.068,19.627-13.068,31.54v1.092c0,13.479,5.78,26.345,15.85,35.296l53.699,47.738l53.692-47.731
			C215.546,112.815,221.326,99.949,221.326,86.463L221.326,86.463z M151.777,150.886l-44.456-39.518
			c-7.108-6.315-11.183-15.391-11.183-24.905v-1.092c0-8.2,3.192-15.906,8.993-21.706c5.028-5.028,11.719-7.796,18.827-7.796
			c7.108,0,13.798,2.768,18.827,7.796l8.993,8.993l8.993-8.993c10.057-10.05,27.597-10.05,37.654,0
			c5.8,5.8,8.993,13.506,8.993,21.706v1.092c0,9.507-4.076,18.59-11.183,24.905L151.777,150.886z"/>
		<path fill="#FFFFFF" d="M450.837,55.869H263.055V21.094c0-11.503-9.361-20.865-20.865-20.865H61.363
			c-11.503,0-20.865,9.361-20.865,20.865v153.007c0,11.503,9.361,20.865,20.865,20.865h59.339l11.594,13.91H75.273
			c-11.503,0-20.865,9.361-20.865,20.865v139.098c0,11.503,9.361,20.865,20.865,20.865h73.249l29.85,35.818
			c3.13,3.756,7.727,5.912,12.616,5.912c9.055,0,16.427-7.372,16.427-16.427v-25.302h76.504c11.503,0,20.865-9.361,20.865-20.865
			V250.605h13.91v25.302c0,9.055,7.372,16.427,16.427,16.427c4.889,0,9.486-2.156,12.616-5.912l29.85-35.818h73.249
			c11.503,0,20.865-9.361,20.865-20.865V76.733C471.701,65.23,462.34,55.869,450.837,55.869L450.837,55.869z M61.363,181.057
			c-3.832,0-6.955-3.116-6.955-6.955V21.094c0-3.839,3.123-6.955,6.955-6.955H242.19c3.832,0,6.955,3.116,6.955,6.955v153.007
			c0,3.839-3.123,6.955-6.955,6.955h-76.504v39.212c0,2.149-3.074,3.262-4.451,1.607l-34.023-40.818H61.363z M221.326,208.876
			h-41.729v-13.91h41.729V208.876z M290.874,368.838c0,3.839-3.123,6.955-6.955,6.955h-90.413v39.212
			c0,2.149-3.074,3.262-4.451,1.607l-34.023-40.818H75.273c-3.832,0-6.955-3.116-6.955-6.955V229.741
			c0-3.839,3.123-6.955,6.955-6.955h68.61l6.67,7.998c3.13,3.756,7.727,5.912,12.616,5.912c8.193,0,14.946-6.051,16.17-13.91h41.987
			v6.955c0,11.503,9.361,20.865,20.865,20.865h48.684V368.838z M457.792,229.741c0,3.839-3.123,6.955-6.955,6.955h-79.759
			l-34.023,40.818c-1.377,1.641-4.451,0.536-4.451-1.607v-39.212H242.19c-3.832,0-6.955-3.116-6.955-6.955v-34.774h6.955
			c11.503,0,20.865-9.361,20.865-20.865V69.778h187.782c3.832,0,6.955,3.116,6.955,6.955V229.741z"/>
		<path fill="#FFFFFF" d="M207.416,292.335c0,4.124,0.96,8.005,2.573,11.524c-2.998-2.657-6.336-4.924-9.945-6.725
			c4.535-4.952,7.372-11.483,7.372-18.709c0-15.342-12.477-27.82-27.82-27.82s-27.82,12.477-27.82,27.82
			c0,7.226,2.838,13.757,7.372,18.709c-3.61,1.801-6.948,4.069-9.945,6.725c1.614-3.519,2.573-7.4,2.573-11.524
			c0-15.342-12.477-27.82-27.82-27.82s-27.82,12.477-27.82,27.82c0,7.414,2.956,14.111,7.699,19.105
			c-12.867,7.115-21.609,20.816-21.609,36.534v13.91h13.91v-13.91c0-15.342,12.477-27.82,27.82-27.82
			c4.382,0,8.582,1.043,12.408,2.956c-1.099,3.178-1.906,6.503-2.295,9.973l-3.116,28.028l13.819,1.537l3.116-28.028
			c1.801-16.177,15.433-28.376,31.707-28.376s29.906,12.199,31.707,28.376l3.116,28.028l13.819-1.537l-3.116-28.028
			c-0.383-3.47-1.196-6.795-2.295-9.973c3.825-1.913,8.026-2.956,12.408-2.956c15.342,0,27.82,12.477,27.82,27.82v13.91h13.91
			v-13.91c0-15.718-8.742-29.419-21.609-36.534c4.743-4.994,7.699-11.691,7.699-19.105c0-15.342-12.477-27.82-27.82-27.82
			S207.416,276.992,207.416,292.335L207.416,292.335z M110.047,292.335c0-7.671,6.239-13.91,13.91-13.91s13.91,6.239,13.91,13.91
			c0,7.671-6.239,13.91-13.91,13.91S110.047,300.006,110.047,292.335z M165.687,278.425c0-7.671,6.239-13.91,13.91-13.91
			c7.671,0,13.91,6.239,13.91,13.91c0,7.671-6.239,13.91-13.91,13.91C171.925,292.335,165.687,286.096,165.687,278.425z
			 M249.145,292.335c0,7.671-6.239,13.91-13.91,13.91c-7.671,0-13.91-6.239-13.91-13.91c0-7.671,6.239-13.91,13.91-13.91
			C242.907,278.425,249.145,284.663,249.145,292.335z"/>
		<path fill="#FFFFFF" d="M402.153,125.417h-12.658l1.676-10.043c1.314-7.908-0.897-15.948-6.079-22.061
			c-5.181-6.12-12.748-9.626-20.76-9.626c-9.591,0-17.916,6.503-20.246,15.801c-2.518,10.085-7.734,19.293-15.085,26.651
			l-2.052,2.052c-2.316-1.718-5.154-2.775-8.255-2.775h-27.82c-7.671,0-13.91,6.239-13.91,13.91v69.549
			c0,7.671,6.239,13.91,13.91,13.91h27.82c6.072,0,11.183-3.929,13.082-9.361c12.338,6.12,25.893,9.361,39.81,9.361h30.567
			c15.342,0,27.82-12.477,27.82-27.82v-41.729C429.972,137.895,417.495,125.417,402.153,125.417L402.153,125.417z M290.874,208.876
			v-69.549h27.82l0.007,69.549H290.874z M416.062,194.966c0,7.671-6.239,13.91-13.91,13.91h-30.567
			c-13.805,0-27.194-3.763-38.982-10.836v-55.834l6.232-6.232c9.132-9.132,15.621-20.586,18.75-33.112
			c0.772-3.095,3.547-5.265,6.746-5.265c3.916,0,7.616,1.711,10.147,4.708c2.532,2.991,3.617,6.92,2.97,10.787l-4.368,26.234h29.071
			c7.671,0,13.91,6.239,13.91,13.91V194.966z"/>
	</g>
</g>
<g display="none">
	<g display="inline">
		<g>
			<path fill="#FFFFFF" d="M369.219,216.687l-14.344-1.014c-3.637,48.87-44.278,86.707-93.284,86.846h-14.387
				c-49.001-0.138-89.64-37.967-93.284-86.832l-14.344,1.021c3.823,50.89,42.679,92.192,93.241,99.111v73.02h-27.076
				c-8.181-0.029-15.666,4.598-19.3,11.927l-10.416,20.825c-1.776,3.554-0.334,7.874,3.219,9.65c1,0.499,2.101,0.759,3.219,0.759
				h143.868c3.973,0.022,7.211-3.181,7.233-7.154c0.006-1.129-0.254-2.244-0.759-3.255l-10.416-20.825
				c-3.64-7.341-11.142-11.969-19.336-11.927h-27.076v-73.02C326.547,308.898,365.406,267.585,369.219,216.687z M247.205,316.906
				h14.387v71.934h-14.387V316.906z M303.054,403.226c2.724,0.002,5.213,1.541,6.431,3.978h0.029l5.179,10.409h-120.59l5.208-10.409
				c1.217-2.437,3.707-3.976,6.431-3.978H303.054z"/>
		</g>
	</g>
	<g display="inline">
		<g>
			<path fill="#FFFFFF" d="M261.592,0.396h-14.387c-43.679,0.051-79.076,35.448-79.127,79.127v129.481
				c0.051,43.679,35.448,79.076,79.127,79.127h14.387c43.679-0.051,79.076-35.448,79.127-79.127V79.523
				C340.668,35.844,305.271,0.447,261.592,0.396z M326.332,209.004c-0.04,35.739-29.002,64.701-64.741,64.741h-14.387
				c-35.739-0.04-64.701-29.002-64.741-64.741V79.523c0.04-35.739,29.002-64.701,64.741-64.741h14.387
				c35.739,0.04,64.701,29.002,64.741,64.741V209.004z"/>
		</g>
	</g>
</g>
<g>
	<path fill="#FFFFFF" d="M266.433,103.594c-2.325-3.487-6.24-5.584-10.433-5.584c-4.193,0-8.108,2.096-10.433,5.584l-134.31,201.463
		c-4.418,6.629-1.607,15.645,5.777,18.6c17.568,7.027,32.458,19.018,43.061,34.682c10.606,15.664,16.213,33.944,16.213,52.861v8.262
		c0,6.926,5.613,12.539,12.539,12.539h134.31c6.923,0,12.539-5.613,12.539-12.539v-8.262c0-18.917,5.603-37.196,16.21-52.861
		c10.606-15.664,25.496-27.655,43.061-34.682c7.396-2.958,10.191-11.981,5.776-18.6L266.433,103.594z M256,284.26
		c7.896,0,14.322,6.426,14.322,14.322c0,7.899-6.426,14.322-14.322,14.322c-7.896,0-14.322-6.423-14.322-14.322
		C241.678,290.686,248.105,284.26,256,284.26z M331.137,344.281c-12.624,18.646-19.655,40.22-20.445,62.64H201.308
		c-0.79-22.42-7.821-43.995-20.445-62.64c-10.554-15.586-24.451-28.298-40.716-37.347l103.314-154.97v109.274
		c-15.596,5.251-26.861,20.001-26.861,37.343c0,21.728,17.676,39.4,39.4,39.4s39.4-17.672,39.4-39.4
		c0-17.339-11.266-32.092-26.861-37.343V151.965l103.314,154.97C355.589,315.983,341.691,328.695,331.137,344.281z"/>
	<path fill="#FFFFFF" d="M442.782,180.534c-5.205-79.304-68.335-143.041-147.381-149.187V16.535c0-6.926-5.613-12.539-12.539-12.539
		h-53.723c-6.926,0-12.539,5.613-12.539,12.539v14.809c-79.049,6.142-142.183,69.886-147.381,149.19
		c-15.782,5.143-27.22,19.988-27.22,37.464c0,21.725,17.676,39.4,39.4,39.4s39.4-17.676,39.4-39.4
		c0-17.196-11.076-31.848-26.469-37.209c4.983-65.586,56.972-118.234,122.27-124.265v13.734c0,6.926,5.613,12.539,12.539,12.539
		h53.726c6.923,0,12.539-5.613,12.539-12.539V56.523c65.289,6.034,117.281,58.679,122.267,124.265
		c-15.39,5.362-26.469,20.014-26.469,37.209c0,21.725,17.676,39.4,39.4,39.4s39.4-17.676,39.4-39.4
		C470.002,200.521,458.56,185.677,442.782,180.534z M81.399,232.32c-7.896,0-14.322-6.426-14.322-14.322s6.426-14.322,14.322-14.322
		c7.899,0,14.322,6.426,14.322,14.322S89.298,232.32,81.399,232.32z M270.322,57.718h-28.644V29.074h28.644V57.718z M430.602,232.32
		c-7.899,0-14.322-6.426-14.322-14.322s6.423-14.322,14.322-14.322c7.896,0,14.322,6.426,14.322,14.322
		S438.498,232.32,430.602,232.32z"/>
</g>
</svg>
